<mxfile host="app.diagrams.net" modified="2023-09-20T20:28:56.792Z" agent="Mozilla/5.0 (Windows NT 10.0; Win64; x64) AppleWebKit/537.36 (KHTML, like Gecko) Chrome/117.0.0.0 Safari/537.36" etag="f26lr82FDk6NO30mN8qf" version="21.7.5" type="github">
  <diagram name="Page-1" id="Qwd6BtzV_9LDYA3kOrD5">
    <mxGraphModel dx="2045" dy="1758" grid="1" gridSize="10" guides="1" tooltips="1" connect="1" arrows="1" fold="1" page="1" pageScale="1" pageWidth="850" pageHeight="1100" math="0" shadow="0">
      <root>
        <mxCell id="0" />
        <mxCell id="1" parent="0" />
        <mxCell id="imZO2CCDfIl-UG94x1gi-4" style="edgeStyle=orthogonalEdgeStyle;rounded=0;orthogonalLoop=1;jettySize=auto;html=1;exitX=0.5;exitY=1;exitDx=0;exitDy=0;" edge="1" parent="1">
          <mxGeometry relative="1" as="geometry">
            <mxPoint x="300" y="570" as="sourcePoint" />
            <mxPoint x="300" y="570" as="targetPoint" />
          </mxGeometry>
        </mxCell>
        <mxCell id="imZO2CCDfIl-UG94x1gi-6" value="" style="rounded=0;whiteSpace=wrap;html=1;fillColor=none;" vertex="1" parent="1">
          <mxGeometry width="700" height="382" as="geometry" />
        </mxCell>
        <mxCell id="imZO2CCDfIl-UG94x1gi-7" value="" style="rounded=0;whiteSpace=wrap;html=1;" vertex="1" parent="1">
          <mxGeometry y="-60" width="66" height="60" as="geometry" />
        </mxCell>
        <mxCell id="imZO2CCDfIl-UG94x1gi-8" value="" style="rounded=0;whiteSpace=wrap;html=1;" vertex="1" parent="1">
          <mxGeometry x="66" width="135" height="11" as="geometry" />
        </mxCell>
        <mxCell id="imZO2CCDfIl-UG94x1gi-9" value="" style="rounded=0;whiteSpace=wrap;html=1;" vertex="1" parent="1">
          <mxGeometry y="-60" width="219" height="60" as="geometry" />
        </mxCell>
        <mxCell id="imZO2CCDfIl-UG94x1gi-10" value="" style="rounded=0;whiteSpace=wrap;html=1;" vertex="1" parent="1">
          <mxGeometry x="219" y="-140" width="131" height="140" as="geometry" />
        </mxCell>
        <mxCell id="imZO2CCDfIl-UG94x1gi-11" value="" style="rounded=0;whiteSpace=wrap;html=1;rotation=-90;" vertex="1" parent="1">
          <mxGeometry x="-13" y="316" width="80" height="50" as="geometry" />
        </mxCell>
        <mxCell id="imZO2CCDfIl-UG94x1gi-12" value="" style="rounded=0;whiteSpace=wrap;html=1;rotation=-90;" vertex="1" parent="1">
          <mxGeometry x="120" y="290" width="40" height="50" as="geometry" />
        </mxCell>
        <mxCell id="imZO2CCDfIl-UG94x1gi-13" value="кровать 160&lt;br&gt;(176 х 209)" style="rounded=0;whiteSpace=wrap;html=1;" vertex="1" parent="1">
          <mxGeometry x="140" y="50" width="176" height="209" as="geometry" />
        </mxCell>
        <mxCell id="imZO2CCDfIl-UG94x1gi-14" value="кровать 140&lt;br&gt;(156 х 209)" style="rounded=0;whiteSpace=wrap;html=1;" vertex="1" parent="1">
          <mxGeometry x="-360" y="30" width="156" height="209" as="geometry" />
        </mxCell>
      </root>
    </mxGraphModel>
  </diagram>
</mxfile>
